<svg id="visual" viewBox="0 0 2560 1440" width="2560" height="1440" xmlns="http://www.w3.org/2000/svg" xmlns:xlink="http://www.w3.org/1999/xlink" version="1.1"><rect width="2560" height="1440" fill="#FFFFFF"></rect><g><g transform="translate(2373 258)"><path d="M0 -209.3L181.3 -104.6L181.3 104.6L0 209.3L-181.3 104.6L-181.3 -104.6Z" stroke="#009473" fill="none" stroke-width="2"></path></g><g transform="translate(2048 1195)"><path d="M0 -188L162.8 -94L162.8 94L0 188L-162.8 94L-162.8 -94Z" stroke="#009473" fill="none" stroke-width="2"></path></g><g transform="translate(473 624)"><path d="M0 -73L63.2 -36.5L63.2 36.5L0 73L-63.2 36.5L-63.2 -36.5Z" stroke="#009473" fill="none" stroke-width="2"></path></g><g transform="translate(1192 1148)"><path d="M0 -176L152.4 -88L152.4 88L0 176L-152.4 88L-152.4 -88Z" stroke="#009473" fill="none" stroke-width="2"></path></g><g transform="translate(137 1217)"><path d="M0 -134L116 -67L116 67L0 134L-116 67L-116 -67Z" stroke="#009473" fill="none" stroke-width="2"></path></g><g transform="translate(1863 26)"><path d="M0 -84L72.7 -42L72.7 42L0 84L-72.7 42L-72.7 -42Z" stroke="#009473" fill="none" stroke-width="2"></path></g><g transform="translate(1975 641)"><path d="M0 -185L160.2 -92.5L160.2 92.5L0 185L-160.2 92.5L-160.2 -92.5Z" stroke="#009473" fill="none" stroke-width="2"></path></g><g transform="translate(858 206)"><path d="M0 -109L94.4 -54.5L94.4 54.5L0 109L-94.4 54.5L-94.4 -54.5Z" stroke="#009473" fill="none" stroke-width="2"></path></g><g transform="translate(1427 587)"><path d="M0 -79L68.4 -39.5L68.4 39.5L0 79L-68.4 39.5L-68.4 -39.5Z" stroke="#009473" fill="none" stroke-width="2"></path></g><g transform="translate(800 1352)"><path d="M0 -154L133.4 -77L133.4 77L0 154L-133.4 77L-133.4 -77Z" stroke="#009473" fill="none" stroke-width="2"></path></g><g transform="translate(1441 169)"><path d="M0 -129L111.7 -64.5L111.7 64.5L0 129L-111.7 64.5L-111.7 -64.5Z" stroke="#009473" fill="none" stroke-width="2"></path></g><g transform="translate(2489 1228)"><path d="M0 -81L70.1 -40.5L70.1 40.5L0 81L-70.1 40.5L-70.1 -40.5Z" stroke="#009473" fill="none" stroke-width="2"></path></g><g transform="translate(1649 1047)"><path d="M0 -133L115.2 -66.5L115.2 66.5L0 133L-115.2 66.5L-115.2 -66.5Z" stroke="#009473" fill="none" stroke-width="2"></path></g><g transform="translate(72 424)"><path d="M0 -123L106.5 -61.5L106.5 61.5L0 123L-106.5 61.5L-106.5 -61.5Z" stroke="#009473" fill="none" stroke-width="2"></path></g><g transform="translate(880 754)"><path d="M0 -89L77.1 -44.5L77.1 44.5L0 89L-77.1 44.5L-77.1 -44.5Z" stroke="#009473" fill="none" stroke-width="2"></path></g><g transform="translate(2534 685)"><path d="M0 -108L93.5 -54L93.5 54L0 108L-93.5 54L-93.5 -54Z" stroke="#009473" fill="none" stroke-width="2"></path></g><g transform="translate(389 95)"><path d="M0 -62L53.7 -31L53.7 31L0 62L-53.7 31L-53.7 -31Z" stroke="#009473" fill="none" stroke-width="2"></path></g></g></svg>